# xmcd
#
# Track frame offsets: 
#        150
#        17880
#        38662
#        53830
#        70732
#        88070
#        107985
#        124580
#        140635
#        156837
#        174707
#        196552
#        213057
#        231837
#        249642
#        267270
#
# Disc length: 3800 seconds
#
# Revision: 1
# Processed by: cddbd v1.5.2PL0 Copyright (c) Steve Scherf et al.
# Submitted via: ExactAudioCopy v1.0b1
#
DISCID=dc0ed610
DTITLE=Various Artist - Motown Year By Year 1980
DYEAR=1995
DGENRE=Motown
TTITLE0=Diana Ross - I'm Coming Out
TTITLE1=Stevie Wonder - I Ain't Gonna Stand For It
TTITLE2=Commodores - Old-Fashion Love
TTITLE3=Smokey Robinson - Let Me Be The Clock
TTITLE4=Teena Marie - I Need Your Lovin'
TTITLE5=Switch - Love Over And Over Again
TTITLE6=Billy Preston And Syreeta - With You I'm Born Again
TTITLE7=Jermaine Jackson - Let's Get Serious
TTITLE8=Rick James - Big Time
TTITLE9=Teena Marie - Behind The Groove
TTITLE10=Stevie Wonder - Master Blaster (Jammin')
TTITLE11=Diana Ross - Upside Down
TTITLE12=Temptations - Power
TTITLE13=Diana Ross - It's My Turn
TTITLE14=Mary Wilson - Pick Up The Pieces
TTITLE15=Diana Ross - I'm Coming Out [12 Inch Mix]
EXTD=
EXTT0=
EXTT1=
EXTT2=
EXTT3=
EXTT4=
EXTT5=
EXTT6=
EXTT7=
EXTT8=
EXTT9=
EXTT10=
EXTT11=
EXTT12=
EXTT13=
EXTT14=
EXTT15=
PLAYORDER=
